<svg xmlns="http://www.w3.org/2000/svg" xmlns:xlink="http://www.w3.org/1999/xlink" version="1.1" x="0px" y="0px" viewBox="0 0 100 125" style="enable-background:new 0 0 100 100;" xml:space="preserve"><path d="M97,50C97,24.1,75.9,3,50,3C36.8,3,24.9,8.5,16.3,17.3l-7.1-7.1L5,14.3l7.4,7.4C6.5,29.6,3,39.4,3,50c0,25.9,21.1,47,47,47  c10.6,0,20.4-3.5,28.2-9.4l8.6,8.6l4.2-4.2l-8.2-8.2C91.5,75.1,97,63.2,97,50z M50,8.9c22.7,0,41.1,18.4,41.1,41.1  c0,11.6-4.8,22-12.5,29.5l-9.2-9.2c2.6-4.1,4.2-9,4.2-14.3h11v-5.9H72.9c-1-4.6-3.1-8.9-6-12.3l5.1-4.7l5.2,5.7l4.4-4L74.4,27  c-0.5-0.6-1.3-0.9-2.1-1c-0.8,0-1.6,0.2-2.1,0.8l-7.6,7c-1.3-1-2.7-1.8-4.2-2.5c-0.2-1.4-0.7-2.7-1.4-3.8l1.2-4  c0.2-0.8,1.1-1.3,1.9-1.1l2.9,0.7l1.4-5.7l-2.9-0.7c-3.9-0.9-7.8,1.3-8.9,5.2L52,23.9c-0.6-0.2-1.3-0.2-2-0.2c-0.7,0-1.3,0.1-2,0.2  l-0.7-2.2c-1.1-3.8-5.1-6.1-8.9-5.2l-2.9,0.7l1.4,5.7l2.9-0.7c0.8-0.2,1.7,0.3,1.9,1.1l1.2,4c-0.8,1.1-1.3,2.4-1.4,3.8  c-2.4,1.1-4.6,2.7-6.6,4.6L20.5,21.5C28,13.7,38.4,8.9,50,8.9z M32.4,56c0-4,1.2-7.9,3.1-11.3L47,56.4v19  C38.8,73.8,32.4,65.6,32.4,56z M47,35.5V48l-8-8C41.4,37.8,44.1,36.2,47,35.5z M53,62.3l8.5,8.5c-2.4,2.3-5.3,4-8.5,4.6V62.3z   M53,53.9V35.5c8,1.8,14.7,10.8,14.7,20.5c0,3.6-0.9,7.1-2.6,10L53,53.9z M50,91.1C27.3,91.1,8.9,72.7,8.9,50c0-9,2.9-17.2,7.8-24  l14.5,14.5c-1.9,2.9-3.3,6.2-4.1,9.7H15.4v5.9h11c0,6,2.1,11.6,5.4,16.1l-6.4,5l3.6,4.7l6.9-5.4c3.9,3.2,8.8,5.2,14,5.2  c5.9,0,11.4-2.5,15.6-6.6l8.4,8.4C67.2,88.2,59,91.1,50,91.1z"/><text x="0" y="115" fill="#000000" font-size="5px" font-weight="bold" font-family="'Helvetica Neue', Helvetica, Arial-Unicode, Arial, Sans-serif">Created by Debashis Howlader</text><text x="0" y="120" fill="#000000" font-size="5px" font-weight="bold" font-family="'Helvetica Neue', Helvetica, Arial-Unicode, Arial, Sans-serif">from the Noun Project</text></svg>